<svg xmlns="http://www.w3.org/2000/svg" viewBox="0 0 25.5 93.2"><defs><style>.cls-1,.cls-2{fill:#00fd8c;}.cls-2{fill-rule:evenodd;}</style></defs><g id="Layer_2" data-name="Layer 2"><g id="Layer_1-2" data-name="Layer 1"><g id="Layer_2-2" data-name="Layer 2"><g id="Layer_1-2-2" data-name="Layer 1-2"><path class="cls-1" d="M25.2,43.2l-.7.2h0v1.9h0l.7.2a.1.1,0,0,1,.1.1v.8h-.1L20.5,45a.1.1,0,0,1-.1-.1V44c0-.1,0-.1.1-.1l4.7-1.6h0c.1,0,.1,0,.1.1v.7A.1.1,0,0,1,25.2,43.2Zm-1.4,2V43.7h0l-2.4.7h0l2.4.8Z"/><path class="cls-1" d="M25.2,40.2a1.79,1.79,0,0,1-.5.7,1.85,1.85,0,0,1-.7.2h-.1c-.1,0-.1,0-.1-.1v-.6c0-.1,0-.1.1-.1H24a.55.55,0,0,0,.5-.3,1.08,1.08,0,0,0,.2-.8,1,1,0,0,0-.2-.7.76.76,0,0,0-.5-.2.37.37,0,0,0-.3.1c-.1.1-.2.2-.2.3s-.2.5-.3.7a2,2,0,0,1-.4.8,2.18,2.18,0,0,1-.4.5.74.74,0,0,1-.7.3,1.23,1.23,0,0,1-1-.5,1.92,1.92,0,0,1-.4-1.2,2.24,2.24,0,0,1,.7-1.7,1.08,1.08,0,0,1,.8-.2h.1c.1,0,.1,0,.1.1h0v.7h-.2a.86.86,0,0,0-.6.3,1.08,1.08,0,0,0-.2.8.73.73,0,0,0,.2.6.76.76,0,0,0,.5.2.76.76,0,0,0,.4-.1c.1-.1.2-.2.2-.3a4.88,4.88,0,0,0,.3-.7,6.89,6.89,0,0,1,.3-.8,2.18,2.18,0,0,1,.4-.5.84.84,0,0,1,.7-.2,1.45,1.45,0,0,1,.7.2,2.65,2.65,0,0,1,.5.6,3.55,3.55,0,0,1,.2,1A3.71,3.71,0,0,1,25.2,40.2Z"/><path class="cls-1" d="M25.2,35.6H20.5c-.1,0-.1,0-.1-.1h0v-.6c0-.1,0-.1.1-.1h4.7c.1,0,.1,0,.1.1v.6C25.3,35.6,25.3,35.6,25.2,35.6Z"/><path class="cls-1" d="M25.2,29.7l-.7.2h0v1.9h0l.7.2a.1.1,0,0,1,.1.1v.8h-.1l-4.7-1.5a.1.1,0,0,1-.1-.1v-.9c0-.1,0-.1.1-.1l4.7-1.6h0c.1,0,.1,0,.1.1v.7c0,.1,0,.1-.1.2Zm-1.4,2V30.2h0l-2.4.7h0l2.4.8Z"/><path class="cls-2" d="M11.8,77.7h0C11.2,68.1,0,68.3,0,78.5V92.9a.22.22,0,0,0,.2.2H1a.35.35,0,0,0,.2-.1h0v-.5a2.14,2.14,0,0,1,2.2-2.1H22.3a2.05,2.05,0,0,1,2.1,2.1h0V93a.22.22,0,0,0,.2.2h.7a.22.22,0,0,0,.2-.2h0V76.7C25.3,66.9,11.9,65.3,11.8,77.7ZM1.6,83.1a.22.22,0,0,1-.2-.2V80.5c0-3.8,9.7-3.8,9.7,0v2.4a.22.22,0,0,1-.2.2Zm22.3-3v1.5c0,.8-.1,1.4-.9,1.4H12.6a.22.22,0,0,1-.2-.2V80C12.5,75.8,23.9,75.8,23.9,80.1Z"/><path class="cls-1" d="M9.8,46.5a.22.22,0,0,0-.2.2v1.4a.22.22,0,0,0,.2.2l7.1,2.3c4.6,1.6,7,4.2,7,7.9s-2.7,3.6-4.3,3.6H18.1V53a.22.22,0,0,0-.2-.2H13.6c-9.5,0-10.2,15.3,1.6,15.3h.9c5.7,0,9-4.2,9.2-9.3h0v-.2h0v-.1h0c0-4.1-2.5-7.2-7.3-9h0a5,5,0,0,0-1.3-.4V45.9a.1.1,0,0,1,.1-.1l1.2-.4c.1,0,.2-.1.1-.2V44.1c0-.1,0-.2-.1-.2h0Zm6.4,15.7H9.8c-1.2,0-2.2-.4-2.2-1.5v-.4c0-2.8,9.4-2.8,9.4.1V62a.22.22,0,0,1-.2.2Zm-.6-16v2.5a.1.1,0,0,1-.1.1l-4.1-1.2h0l4.2-1.4Z"/><path class="cls-1" d="M9.6,36.5v1a.22.22,0,0,0,.2.2h5.6v.1L9.8,41.3c-.1,0-.1.1-.1.2v1a.22.22,0,0,0,.2.2H18a.22.22,0,0,0,.2-.2v-1a.35.35,0,0,0-.1-.2H12.4L18,37.8c.1-.1.1-.1.1-.2v-1a.22.22,0,0,0-.2-.2h-8c-.1-.1-.2,0-.3.1Z"/><path class="cls-1" d="M13.9,30c-.2.4-.4.9-.6,1.4a6.12,6.12,0,0,1-.5,1.2,2.09,2.09,0,0,1-.4.6,1.42,1.42,0,0,1-.6.2A.91.91,0,0,1,11,33a1.69,1.69,0,0,1-.3-1,2,2,0,0,1,.4-1.3,1.23,1.23,0,0,1,1-.5h.1a.1.1,0,0,0,.1-.1l.1-.1V29a.22.22,0,0,0-.2-.2H12a2,2,0,0,0-1.3.4,3.13,3.13,0,0,0-.9,1.1,4.53,4.53,0,0,0-.3,1.6,3.22,3.22,0,0,0,.6,2.1,2.14,2.14,0,0,0,1.7.8,1.75,1.75,0,0,0,1.2-.4,2.36,2.36,0,0,0,.8-.9c.2-.5.4-.9.6-1.4s.4-.9.5-1.1.3-.4.4-.6a1.42,1.42,0,0,1,.6-.2.91.91,0,0,1,.8.4,2.24,2.24,0,0,1-.1,2.4,1.19,1.19,0,0,1-.9.5h-.2a.35.35,0,0,0-.2.1h0v1a.22.22,0,0,0,.2.2h.2a2,2,0,0,0,1.3-.4,2.44,2.44,0,0,0,.9-1.1,4.53,4.53,0,0,0,.3-1.6,4.15,4.15,0,0,0-.3-1.6,2.72,2.72,0,0,0-.8-1,2.84,2.84,0,0,0-1.2-.4,1.75,1.75,0,0,0-1.2.4A6.47,6.47,0,0,0,13.9,30Z"/><path class="cls-1" d="M9.6,22v5.8a.22.22,0,0,0,.2.2h.8a.22.22,0,0,0,.2-.2V25.7a.1.1,0,0,1,.1-.1h7a.22.22,0,0,0,.2-.2v-1a.22.22,0,0,0-.2-.2h-7c-.1,0-.1,0-.1-.1V22a.35.35,0,0,0-.1-.2H9.9C9.7,21.8,9.6,21.8,9.6,22Z"/><path class="cls-1" d="M9.8,17.2a.22.22,0,0,0-.2.2v1.4a.22.22,0,0,0,.2.2L18,21.6h.2l.1-.1V20.4a.35.35,0,0,0-.1-.2l-1.3-.4a.1.1,0,0,1-.1-.1h0V16.5a.1.1,0,0,1,.1-.1l1.2-.4c.1,0,.2-.1.1-.2V14.7c0-.1,0-.2-.1-.2h0Zm5.8-.3v2.5a.1.1,0,0,1-.1.1l-4.1-1.2h0l4.2-1.4Z"/><path class="cls-1" d="M17,7.8v4a.1.1,0,0,1-.1.1h-7a.22.22,0,0,0-.2.2v1a.22.22,0,0,0,.2.2H18a.22.22,0,0,0,.2-.2V7.8a.22.22,0,0,0-.2-.2h-.8C17,7.6,17,7.7,17,7.8Z"/><path class="cls-1" d="M17.9,0,13.3,3h-.1L9.9.2H9.8c-.1,0-.1.1-.1.2V1.5c0,.1,0,.2.1.2l3.7,3.1v.1H9.9c-.2,0-.2.1-.2.2v1a.22.22,0,0,0,.2.2H18a.22.22,0,0,0,.2-.2v-1c0-.1-.1-.1-.2-.1H15.3l-1-.9h0V4L18,1.6c.1,0,.1-.1.1-.2V.2c0-.1,0-.2-.2-.2Z"/></g></g></g></g></svg>